<svg xmlns="http://www.w3.org/2000/svg" width="47" height="44" viewBox="0 0 47 44">
  <g id="instagram_icon" data-name="instagram icon" transform="translate(0.452 -0.116)">
    <rect id="Rectangle_1725" data-name="Rectangle 1725" width="47" height="44" transform="translate(-0.452 0.116)" fill="none"/>
    <g id="Group_533" data-name="Group 533" transform="translate(9.104 6.208)">
      <path id="Path_20" data-name="Path 20" d="M216.12,213.56a2.56,2.56,0,1,1-2.56-2.56A2.56,2.56,0,0,1,216.12,213.56Z" transform="translate(-198.997 -198.997)" fill="#fff"/>
      <path id="Path_21" data-name="Path 21" d="M132.06,120h-8.647A3.417,3.417,0,0,0,120,123.413v8.647a3.417,3.417,0,0,0,3.413,3.413h8.647a3.417,3.417,0,0,0,3.413-3.413v-8.647A3.417,3.417,0,0,0,132.06,120Zm-4.324,12A4.267,4.267,0,1,1,132,127.737,4.272,4.272,0,0,1,127.737,132Zm4.892-8.306a.853.853,0,1,1,.853-.853A.853.853,0,0,1,132.629,123.7Z" transform="translate(-113.173 -113.173)" fill="#fff"/>
      <path id="Path_22" data-name="Path 22" d="M21.447,0H7.68A7.689,7.689,0,0,0,0,7.68V21.447a7.689,7.689,0,0,0,7.68,7.68H21.447a7.689,7.689,0,0,0,7.68-7.68V7.68A7.689,7.689,0,0,0,21.447,0Zm2.56,18.887a5.126,5.126,0,0,1-5.12,5.12H10.24a5.126,5.126,0,0,1-5.12-5.12V10.24a5.126,5.126,0,0,1,5.12-5.12h8.647a5.126,5.126,0,0,1,5.12,5.12Z" fill="#fff"/>
    </g>
  </g>
</svg>
