<svg xmlns="http://www.w3.org/2000/svg" width="45" height="44" viewBox="0 0 45 44">
  <g id="Linkedin_icon" data-name="Linkedin icon" transform="translate(-0.486 -0.116)">
    <rect id="Rectangle_1725" data-name="Rectangle 1725" width="45" height="44" transform="translate(0.486 0.116)" fill="none"/>
    <g id="Group_536" data-name="Group 536" transform="translate(8.537 7.859)">
      <path id="Path_23" data-name="Path 23" d="M198.249,179.748h.007v-9.736c0-4.763-1.025-8.432-6.594-8.432a5.78,5.78,0,0,0-5.207,2.862h-.077v-2.417H181.1v17.723h5.5v-8.776c0-2.311.438-4.545,3.3-4.545,2.819,0,2.861,2.637,2.861,4.693v8.629Z" transform="translate(-171.709 -153.201)" fill="#fff"/>
      <path id="Path_24" data-name="Path 24" d="M8.448,170.176h5.5V187.9h-5.5Z" transform="translate(-8.01 -161.352)" fill="#fff"/>
      <path id="Path_25" data-name="Path 25" d="M3.188,0A3.2,3.2,0,1,0,6.376,3.188,3.189,3.189,0,0,0,3.188,0Z" fill="#fff"/>
    </g>
  </g>
</svg>
