<svg id="Component_35_1" data-name="Component 35 – 1" xmlns="http://www.w3.org/2000/svg" width="62" height="59" viewBox="0 0 62 59">
  <ellipse id="Ellipse_85" data-name="Ellipse 85" cx="31" cy="29.5" rx="31" ry="29.5" fill="#fff" opacity="0"/>
  <g id="Group_1573" data-name="Group 1573" transform="translate(12.14 15.035)">
    <path id="Subtraction_3" data-name="Subtraction 3" d="M13.38,4.38H1.6A11.741,11.741,0,0,0,0,0H13.38a2.19,2.19,0,0,1,0,4.38Z" transform="translate(23.981 5.283)" fill="#fff"/>
    <path id="Subtraction_4" data-name="Subtraction 4" d="M37.361,4.38h-15.7A18.364,18.364,0,0,0,24.616,0H37.361a2.19,2.19,0,1,1,0,4.38Zm-34.978,0H2.191a2.192,2.192,0,0,1-2.036-3,21.775,21.775,0,0,0,2.227,3Z" transform="translate(0 15.456)" fill="#fff"/>
    <path id="Subtraction_5" data-name="Subtraction 5" d="M37.361,4.379H2.191A2.19,2.19,0,1,1,2.191,0h5.3c1.695,1.408,3.192,2.494,3.934,3.016a1.053,1.053,0,0,0,1.2,0c.742-.522,2.239-1.608,3.934-3.016h20.8a2.19,2.19,0,1,1,0,4.379Z" transform="translate(0 25.629)" fill="#fff"/>
    <path id="Subtraction_1" data-name="Subtraction 1" d="M11.865,27.007a.894.894,0,0,1-.536-.177A54.125,54.125,0,0,1,4.8,21.1C1.614,17.744,0,14.843,0,12.473c0-.164.006-.32.012-.451S0,11.739,0,11.575A11.36,11.36,0,0,1,3.475,3.39a12.077,12.077,0,0,1,16.78,0,11.359,11.359,0,0,1,3.475,8.185c0,.153-.006.3-.012.446s.012.3.012.451c0,2.37-1.614,5.272-4.8,8.623A54.062,54.062,0,0,1,12.4,26.831.891.891,0,0,1,11.865,27.007Zm0-19.856A3.749,3.749,0,1,0,15.707,10.9,3.8,3.8,0,0,0,11.865,7.152Z" transform="translate(0.001 0)" fill="#fff"/>
  </g>
</svg>
