<svg xmlns="http://www.w3.org/2000/svg" width="15" height="20" viewBox="0 0 15 20">
  <path id="Path_7" data-name="Path 7" d="M117.988,281.064a1.726,1.726,0,0,0-3.441,0c0,1.224-.059,2.357-.155,3.388a21.559,21.559,0,0,0-2.474-6.323,1.8,1.8,0,0,0-2.33-.647,1.524,1.524,0,0,0-.7,2.147,18.8,18.8,0,0,1,1.952,4.7,18.947,18.947,0,0,0-3.819-3.456,1.813,1.813,0,0,0-2.383.455,1.512,1.512,0,0,0,.494,2.2,11.334,11.334,0,0,1,1.944,1.638,6.592,6.592,0,0,0-3.953,3.665,1.553,1.553,0,0,0,1.012,2.039,1.767,1.767,0,0,0,2.213-.932,3.389,3.389,0,0,1,3.162-2.023,3.118,3.118,0,1,1,0,6.215,3.377,3.377,0,0,1-3.176-2.06,1.764,1.764,0,0,0-2.2-.958,1.555,1.555,0,0,0-1.04,2.027,6.823,6.823,0,0,0,6.417,4.162,6.747,6.747,0,0,0,6.6-4.728A31.652,31.652,0,0,0,117.988,281.064Z" transform="translate(-102.988 -277.293)" fill="#ffc832"/>
</svg>
